<svg xmlns="http://www.w3.org/2000/svg" version="1.1" xmlns:xlink="http://www.w3.org/1999/xlink" xmlns:svgjs="http://svgjs.dev/svgjs" width="2000" height="2075" viewBox="0 0 2000 2075"><g transform="matrix(1,0,0,1,-0.7194858783088875,-3.3467741935485265)"><svg viewBox="0 0 239 248" data-background-color="#ffffff" preserveAspectRatio="xMidYMid meet" height="2075" width="2000" xmlns="http://www.w3.org/2000/svg" xmlns:xlink="http://www.w3.org/1999/xlink"><g id="tight-bounds" transform="matrix(1,0,0,1,0.08597856245791036,0.4000000000000057)"><svg viewBox="0 0 238.8280428750842 247.2" height="247.2" width="238.8280428750842"><g><svg viewBox="0 0 395.52 409.3846887617741" height="247.2" width="238.8280428750842"><g transform="matrix(1,0,0,1,0,305.6528524643668)"><svg viewBox="0 0 395.52 103.7318362974073" height="103.7318362974073" width="395.52"><g id="textblocktransform"><svg viewBox="0 0 395.52 103.7318362974073" height="103.7318362974073" width="395.52" id="textblock"><g><svg viewBox="0 0 395.52 103.7318362974073" height="103.7318362974073" width="395.52"><g transform="matrix(1,0,0,1,0,0)"><svg width="395.52" viewBox="2.53 -31.67 162.04 42.5" height="103.7318362974073" data-palette-color="#ffffff"><path d="M11.11 0.42L11.11 0.42Q8.33 0.42 6.09-0.69 3.85-1.81 2.53-3.4L2.53-3.4 3.68-8.19Q4.65-6.25 6.6-4.69 8.54-3.13 11.25-3.13L11.25-3.13Q13.72-3.13 15.33-4.69 16.94-6.25 16.94-8.54L16.94-8.54Q16.94-10.21 16.15-11.28 15.35-12.36 14.34-12.99 13.33-13.61 12.74-13.89L12.74-13.89 8.92-15.83Q8.02-16.32 6.68-17.19 5.35-18.06 4.34-19.58 3.33-21.11 3.33-23.54L3.33-23.54Q3.33-25.9 4.43-27.74 5.52-29.58 7.48-30.63 9.44-31.67 11.98-31.67L11.98-31.67Q14.48-31.67 16.39-30.78 18.3-29.9 19.38-28.96L19.38-28.96 18.23-24.17Q17.36-25.63 15.66-26.91 13.96-28.19 11.81-28.19L11.81-28.19Q9.72-28.19 8.47-26.96 7.22-25.73 7.22-23.92L7.22-23.92Q7.22-22.53 7.86-21.63 8.51-20.73 9.32-20.21 10.14-19.69 10.66-19.41L10.66-19.41 14.55-17.47Q15.24-17.12 16.3-16.49 17.36-15.87 18.4-14.84 19.44-13.82 20.14-12.34 20.83-10.87 20.83-8.78L20.83-8.78Q20.83-6.11 19.57-4.03 18.3-1.94 16.11-0.76 13.92 0.42 11.11 0.42ZM35.17 0.28L35.17 0.28Q32.32 0.28 29.96-1.16 27.6-2.6 26.2-5.03 24.79-7.47 24.79-10.42L24.79-10.42Q24.79-13.37 26.2-15.8 27.6-18.23 29.96-19.67 32.32-21.11 35.17-21.11L35.17-21.11Q37.32-21.11 39.22-20.31 41.11-19.51 42.5-18.09L42.5-18.09 42.5-20.83 45.97-20.83 45.97 0 42.5 0 42.5-2.74Q41.11-1.35 39.22-0.54 37.32 0.28 35.17 0.28ZM35.66-3.13L35.66-3.13Q37.64-3.13 39.25-4.11 40.87-5.1 41.82-6.75 42.78-8.4 42.78-10.42L42.78-10.42Q42.78-12.43 41.82-14.08 40.87-15.73 39.25-16.72 37.64-17.71 35.66-17.71L35.66-17.71Q33.68-17.71 32.06-16.72 30.45-15.73 29.49-14.08 28.54-12.43 28.54-10.42L28.54-10.42Q28.54-8.4 29.49-6.75 30.45-5.1 32.06-4.11 33.68-3.13 35.66-3.13ZM56.38 0L52.63 0 52.63-20.83 56.11-20.83 56.11-17.47Q57.25-19.31 59.07-20.28 60.9-21.25 63.02-21.25L63.02-21.25Q65.24-21.25 67.13-20.16 69.02-19.06 70.2-17 71.38-14.93 71.38-11.98L71.38-11.98 71.38 0 67.63 0 67.63-11.46Q67.63-13.92 66.16-15.82 64.68-17.71 62.01-17.71L62.01-17.71Q59.82-17.71 58.1-16.13 56.38-14.55 56.38-11.56L56.38-11.56 56.38 0ZM86.07 10.83L86.07 10.83Q83.67 10.83 81.71 10.14 79.75 9.44 78.22 8.23L78.22 8.23 79.26 3.99Q80.31 5.49 82.04 6.42 83.78 7.36 86.03 7.36L86.03 7.36Q89.54 7.36 91.71 5.24 93.88 3.13 93.88-0.21L93.88-0.21 93.88-2.74Q92.49-1.35 90.6-0.54 88.71 0.28 86.56 0.28L86.56 0.28Q83.71 0.28 81.35-1.16 78.99-2.6 77.58-5.03 76.17-7.47 76.17-10.42L76.17-10.42Q76.17-13.37 77.58-15.8 78.99-18.23 81.35-19.67 83.71-21.11 86.56-21.11L86.56-21.11Q88.71-21.11 90.6-20.31 92.49-19.51 93.88-18.09L93.88-18.09 93.88-20.83 97.35-20.83 97.35 0Q97.35 3.4 95.77 5.83 94.19 8.26 91.62 9.55 89.06 10.83 86.07 10.83ZM87.04-3.13L87.04-3.13Q89.02-3.13 90.63-4.11 92.25-5.1 93.2-6.75 94.16-8.4 94.16-10.42L94.16-10.42Q94.16-12.43 93.2-14.08 92.25-15.73 90.63-16.72 89.02-17.71 87.04-17.71L87.04-17.71Q85.06-17.71 83.45-16.72 81.83-15.73 80.88-14.08 79.92-12.43 79.92-10.42L79.92-10.42Q79.92-8.4 80.88-6.75 81.83-5.1 83.45-4.11 85.06-3.13 87.04-3.13ZM113.95 0.42L113.95 0.42Q110.68 0.42 108.1-1.04 105.51-2.5 104.04-5.02 102.56-7.53 102.56-10.63L102.56-10.63Q102.56-13.58 103.98-15.99 105.41-18.4 107.82-19.83 110.23-21.25 113.15-21.25L113.15-21.25Q116.03-21.25 118.43-19.88 120.82-18.51 122.25-16.18 123.67-13.85 123.67-10.9L123.67-10.9 123.67-9.38 110.06-9.38Q109.16-9.38 108.22-9.44 107.28-9.51 106.38-9.65L106.38-9.65Q106.76-6.88 108.9-5 111.03-3.13 113.98-3.13L113.98-3.13Q115.96-3.13 117.66-4.03 119.37-4.93 120.41-6.42L120.41-6.42 121.45-2.15Q119.96-0.94 118.03-0.26 116.1 0.42 113.95 0.42ZM106.27-12.19L106.27-12.19Q108.15-12.5 110.06-12.5L110.06-12.5 116.97-12.5Q117.73-12.5 118.48-12.45 119.23-12.4 119.99-12.33L119.99-12.33Q119.5-14.76 117.56-16.34 115.62-17.92 113.15-17.92L113.15-17.92Q110.62-17.92 108.71-16.23 106.8-14.55 106.27-12.19ZM138.6 0.42L138.6 0.42Q135.33 0.42 132.75-1.04 130.16-2.5 128.69-5.02 127.21-7.53 127.21-10.63L127.21-10.63Q127.21-13.58 128.63-15.99 130.06-18.4 132.47-19.83 134.88-21.25 137.8-21.25L137.8-21.25Q140.68-21.25 143.08-19.88 145.47-18.51 146.9-16.18 148.32-13.85 148.32-10.9L148.32-10.9 148.32-9.38 134.71-9.38Q133.81-9.38 132.87-9.44 131.93-9.51 131.03-9.65L131.03-9.65Q131.41-6.88 133.55-5 135.68-3.13 138.63-3.13L138.63-3.13Q140.61-3.13 142.31-4.03 144.02-4.93 145.06-6.42L145.06-6.42 146.1-2.15Q144.61-0.94 142.68-0.26 140.75 0.42 138.6 0.42ZM130.93-12.19L130.93-12.19Q132.8-12.5 134.71-12.5L134.71-12.5 141.62-12.5Q142.38-12.5 143.13-12.45 143.88-12.4 144.64-12.33L144.64-12.33Q144.15-14.76 142.21-16.34 140.27-17.92 137.8-17.92L137.8-17.92Q135.27-17.92 133.36-16.23 131.45-14.55 130.93-12.19ZM159.5 0L155.75 0 155.75-17.71 151.03-17.71 151.03-20.83 155.85-20.83 155.85-27.78 159.39-27.78 159.39-20.83 164.57-20.83 164.57-17.71 159.5-17.71 159.5 0Z" opacity="1" transform="matrix(1,0,0,1,0,0)" fill="#ffffff" class="wordmark-text-0" data-fill-palette-color="primary" id="text-0"></path></svg></g></svg></g></svg></g></svg></g><g transform="matrix(1,0,0,1,75.54432,0)"><svg viewBox="0 0 244.43135999999998 244.43135999999998" height="244.43135999999998" width="244.43135999999998"><g><svg viewBox="0 0 244.43135999999998 244.43135999999998" height="244.43135999999998" width="244.43135999999998"><g transform="matrix(1,0,0,1,74.98980732375551,64.60265593644992)"><svg viewBox="0 0 94.45174535248897 115.22604812710014" height="115.22604812710014" width="94.45174535248897"><g><svg xmlns="http://www.w3.org/2000/svg" xmlns:xlink="http://www.w3.org/1999/xlink" version="1.1" x="0" y="0" viewBox="4.544 4.208 19.332 23.584000000000003" enable-background="new 0 0 32 32" xml:space="preserve" height="115.22604812710014" width="94.45174535248897" class="icon-dxe-0" data-fill-palette-color="accent" id="dxe-0"><path d="M10.96 8.042V23.945C10.283 23.495 9.324 23.209 8.252 23.209 6.204 23.209 4.544 24.234 4.544 25.501 4.544 26.766 6.204 27.792 8.252 27.792S11.96 26.766 11.96 25.501V13.786L22.876 10.546V20.111C22.198 19.661 21.241 19.375 20.167 19.375 18.12 19.375 16.46 20.4 16.46 21.667 16.46 22.932 18.12 23.958 20.167 23.958 22.216 23.958 23.876 22.932 23.876 21.667V4.208z" fill="#eb5e28" data-fill-palette-color="accent"></path></svg></g></svg></g><g id="text-0"><path d="M31.943 83.137v0c-0.561 1.623-1.395 2.975-2.502 4.056-1.103 1.09-2.252 1.858-3.448 2.303v0l-3.862-2.455c1.336-0.178 2.656-0.676 3.96-1.493 1.306-0.823 2.233-2.027 2.781-3.611v0c0.498-1.44 0.455-2.79-0.131-4.048-0.586-1.259-1.548-2.12-2.887-2.584v0c-0.975-0.337-1.857-0.382-2.647-0.134-0.79 0.248-1.469 0.604-2.039 1.069-0.573 0.456-0.999 0.83-1.275 1.122v0l-2.867 2.758c-0.466 0.43-1.089 0.95-1.87 1.561-0.779 0.604-1.716 1.043-2.812 1.319-1.098 0.282-2.357 0.177-3.778-0.315v0c-1.377-0.476-2.493-1.222-3.346-2.235-0.862-1.009-1.396-2.194-1.602-3.553-0.214-1.356-0.064-2.776 0.449-4.26v0c0.505-1.459 1.209-2.659 2.112-3.6 0.901-0.935 1.737-1.621 2.508-2.058v0l3.852 2.452c-1.032 0.213-2.093 0.688-3.186 1.422-1.092 0.735-1.856 1.731-2.291 2.989v0c-0.422 1.22-0.401 2.319 0.064 3.296 0.471 0.98 1.235 1.652 2.291 2.018v0c0.811 0.281 1.545 0.327 2.202 0.139 0.659-0.195 1.222-0.479 1.689-0.852 0.467-0.374 0.835-0.683 1.103-0.928v0l2.889-2.825c0.34-0.333 0.804-0.746 1.39-1.24 0.578-0.49 1.271-0.937 2.08-1.34 0.808-0.403 1.713-0.657 2.714-0.762 1.009-0.109 2.121 0.047 3.334 0.467v0c1.566 0.542 2.831 1.395 3.794 2.559 0.957 1.162 1.561 2.501 1.811 4.017 0.25 1.516 0.09 3.098-0.48 4.746z" fill="#eb5e28" data-fill-palette-color="accent"></path><path d="M52.61 49.855v0c-1.194 1.298-2.615 2.183-4.263 2.657-1.643 0.469-3.313 0.515-5.01 0.138-1.697-0.377-3.219-1.185-4.565-2.424v0c-1.342-1.235-2.271-2.682-2.788-4.341-0.516-1.66-0.609-3.328-0.279-5.004 0.335-1.681 1.1-3.171 2.294-4.469v0c0.901-0.979 1.929-1.733 3.085-2.262 1.16-0.524 2.354-0.804 3.582-0.841v0l-1.873-1.723 2.183-2.373 14.228 13.092-2.183 2.372-1.873-1.723c0.05 1.213-0.135 2.422-0.555 3.626-0.421 1.204-1.082 2.296-1.983 3.275zM50.585 47.382v0c0.829-0.901 1.356-1.926 1.582-3.075 0.225-1.149 0.164-2.286-0.185-3.411-0.348-1.125-0.983-2.111-1.903-2.959v0c-0.916-0.843-1.949-1.391-3.099-1.644-1.15-0.254-2.289-0.22-3.415 0.1-1.126 0.32-2.104 0.931-2.933 1.831v0c-0.829 0.901-1.356 1.926-1.582 3.076-0.225 1.149-0.164 2.286 0.185 3.411 0.348 1.125 0.98 2.109 1.896 2.952v0c0.921 0.847 1.956 1.397 3.106 1.651 1.15 0.254 2.289 0.22 3.415-0.1 1.126-0.32 2.104-0.931 2.933-1.832z" fill="#eb5e28" data-fill-palette-color="accent"></path><path d="M82.155 28.288l-3.197 1.386-7.691-17.74 2.958-1.282 1.243 2.866c0.195-1.325 0.692-2.487 1.491-3.486 0.791-1.003 1.788-1.765 2.991-2.287v0c1.264-0.548 2.568-0.744 3.912-0.586 1.345 0.157 2.604 0.677 3.778 1.561 1.18 0.881 2.132 2.158 2.858 3.83v0l4.423 10.203-3.187 1.381-4.229-9.753c-0.609-1.404-1.568-2.461-2.876-3.17-1.3-0.706-2.707-0.73-4.221-0.074v0c-1.246 0.54-2.163 1.468-2.753 2.782-0.582 1.318-0.504 2.826 0.231 4.524v0z" fill="#eb5e28" data-fill-palette-color="accent"></path><path d="M125.335 29.635v0c-1.477-0.027-2.821-0.264-4.03-0.712-1.203-0.454-2.27-1.066-3.202-1.835v0l1.039-3.915c0.629 0.937 1.473 1.704 2.534 2.303 1.061 0.598 2.29 0.91 3.687 0.935v0c2.169 0.039 3.937-0.584 5.306-1.871 1.368-1.28 2.07-2.951 2.107-5.014v0l0.043-2.355c-0.874 0.843-1.901 1.506-3.081 1.991-1.18 0.484-2.436 0.715-3.767 0.691v0c-1.763-0.032-3.369-0.507-4.816-1.425-1.441-0.918-2.584-2.137-3.428-3.656-0.844-1.519-1.25-3.194-1.217-5.024v0c0.033-1.823 0.499-3.479 1.397-4.967 0.899-1.488 2.085-2.665 3.558-3.529 1.48-0.865 3.101-1.282 4.865-1.25v0c1.331 0.024 2.577 0.293 3.739 0.806 1.162 0.52 2.164 1.227 3.007 2.121v0l0.046-2.545 3.224 0.058-0.35 19.332c-0.038 2.103-0.56 3.897-1.565 5.383-1.005 1.486-2.31 2.614-3.915 3.384-1.605 0.763-3.332 1.128-5.181 1.094zM126.478 16.697v0c1.224 0.022 2.341-0.264 3.35-0.858 1.009-0.594 1.819-1.395 2.429-2.402 0.611-1.007 0.927-2.136 0.95-3.387v0c0.022-1.244-0.253-2.381-0.827-3.41-0.574-1.029-1.354-1.858-2.341-2.488-0.987-0.63-2.093-0.956-3.317-0.978v0c-1.224-0.022-2.341 0.264-3.35 0.857-1.009 0.594-1.819 1.395-2.43 2.403-0.611 1.007-0.927 2.133-0.949 3.377v0c-0.023 1.251 0.253 2.391 0.827 3.419 0.574 1.029 1.354 1.858 2.341 2.488 0.987 0.63 2.093 0.956 3.317 0.979z" fill="#eb5e28" data-fill-palette-color="accent"></path><path d="M166.592 30.477v0c-1.819-0.871-3.256-2.06-4.311-3.569-1.053-1.5-1.653-3.152-1.8-4.957-0.156-1.801 0.178-3.563 1.003-5.285v0c0.787-1.645 1.903-2.951 3.348-3.92 1.436-0.965 3.016-1.522 4.74-1.671 1.733-0.152 3.412 0.162 5.039 0.941v0c1.609 0.77 2.898 1.86 3.869 3.268 0.968 1.4 1.539 2.943 1.713 4.628 0.172 1.676-0.136 3.336-0.923 4.98v0l-0.612 1.279-11.39-5.452c-0.504-0.241-1.009-0.505-1.513-0.791-0.508-0.295-0.997-0.599-1.467-0.913v0c-0.525 1.652-0.441 3.286 0.254 4.903 0.689 1.613 1.855 2.814 3.5 3.6v0c1.104 0.529 2.253 0.772 3.446 0.732 1.19-0.05 2.275-0.353 3.257-0.909v0l-0.838 3.992c-1.159 0.279-2.366 0.35-3.622 0.214-1.261-0.139-2.492-0.496-3.693-1.07zM165.224 16.852v0c1.128 0.326 2.226 0.745 3.294 1.256v0l5.781 2.767c0.426 0.204 0.842 0.422 1.248 0.652 0.403 0.222 0.807 0.456 1.213 0.703v0c0.379-1.486 0.237-2.93-0.427-4.333-0.664-1.402-1.683-2.433-3.058-3.09v0c-1.417-0.678-2.882-0.8-4.395-0.367-1.517 0.425-2.735 1.229-3.656 2.412z" fill="#eb5e28" data-fill-palette-color="accent"></path><path d="M197.432 55.371v0c-1.316-1.528-2.154-3.195-2.514-5-0.361-1.796-0.247-3.55 0.343-5.262 0.581-1.712 1.595-3.191 3.041-4.437v0c1.382-1.19 2.929-1.938 4.641-2.245 1.703-0.307 3.373-0.182 5.012 0.374 1.648 0.557 3.06 1.519 4.236 2.886v0c1.164 1.351 1.907 2.867 2.23 4.547 0.324 1.671 0.227 3.313-0.289 4.926-0.516 1.604-1.465 3-2.847 4.19v0l-1.074 0.925-8.239-9.568c-0.365-0.424-0.721-0.868-1.069-1.333-0.347-0.474-0.672-0.949-0.977-1.424v0c-1.145 1.302-1.724 2.832-1.736 4.591-0.018 1.754 0.568 3.322 1.758 4.703v0c0.799 0.928 1.753 1.612 2.862 2.054 1.11 0.432 2.226 0.591 3.348 0.476v0l-2.371 3.32c-1.173-0.21-2.308-0.63-3.403-1.259-1.099-0.634-2.083-1.455-2.952-2.464zM201.653 42.344v0c0.902 0.751 1.739 1.576 2.512 2.474v0l4.182 4.856c0.308 0.358 0.602 0.724 0.88 1.099 0.279 0.365 0.556 0.742 0.829 1.131v0c0.944-1.208 1.394-2.588 1.349-4.139-0.045-1.551-0.564-2.904-1.558-4.059v0c-1.025-1.19-2.317-1.89-3.878-2.101-1.56-0.22-2.998 0.026-4.316 0.739z" fill="#eb5e28" data-fill-palette-color="accent"></path><path d="M215.399 87.338l-1.13-3.295 15.541-5.332-1.423-4.145 2.748-0.943 1.455 4.239 6.099-2.092 1.066 3.106-6.1 2.093 1.559 4.541-2.748 0.943-1.526-4.447z" fill="#eb5e28" data-fill-palette-color="accent"></path><path d="M13.036 158.167v0c-0.548-1.592-0.725-3.139-0.531-4.642 0.198-1.511 0.623-2.801 1.275-3.87v0l4.466-0.428c-0.923 0.937-1.643 2.117-2.159 3.541-0.508 1.428-0.494 2.918 0.04 4.472v0c0.485 1.409 1.335 2.426 2.549 3.05 1.218 0.615 2.485 0.696 3.8 0.244v0c0.956-0.329 1.664-0.83 2.123-1.502 0.459-0.672 0.767-1.359 0.926-2.061 0.162-0.696 0.262-1.241 0.303-1.635v0l0.55-3.863c0.097-0.618 0.262-1.396 0.494-2.334 0.235-0.932 0.69-1.839 1.366-2.719 0.682-0.882 1.718-1.563 3.108-2.041v0c1.359-0.468 2.672-0.568 3.94-0.301 1.272 0.259 2.4 0.849 3.386 1.77 0.985 0.921 1.728 2.108 2.228 3.561v0c0.494 1.435 0.674 2.787 0.542 4.057-0.126 1.268-0.354 2.304-0.683 3.107v0l-4.462 0.438c0.666-0.785 1.199-1.792 1.599-3.021 0.4-1.229 0.387-2.463-0.04-3.702v0c-0.412-1.196-1.093-2.031-2.044-2.506-0.952-0.475-1.947-0.533-2.985-0.176v0c-0.799 0.275-1.393 0.687-1.781 1.236-0.388 0.549-0.653 1.108-0.795 1.678-0.135 0.567-0.23 1.029-0.283 1.386v0l-0.53 3.919c-0.056 0.47-0.16 1.069-0.311 1.796-0.149 0.734-0.416 1.501-0.801 2.303-0.379 0.799-0.926 1.543-1.639 2.232-0.707 0.687-1.658 1.236-2.853 1.647v0c-1.535 0.529-3.025 0.637-4.47 0.325-1.447-0.318-2.722-0.988-3.827-2.008-1.113-1.025-1.946-2.342-2.501-3.953z" fill="#eb5e28" data-fill-palette-color="accent"></path><path d="M38.025 198.342v0c-1.166-1.27-1.911-2.726-2.237-4.369-0.33-1.648-0.239-3.286 0.273-4.913 0.512-1.627 1.427-3.045 2.746-4.256v0c1.319-1.211 2.808-2 4.467-2.367 1.664-0.372 3.304-0.323 4.918 0.147 1.615 0.46 3.005 1.324 4.171 2.594v0c0.887 0.966 1.538 2.034 1.954 3.206 0.421 1.177 0.596 2.366 0.526 3.568v0l1.838-1.687 2.141 2.33-13.963 12.821-2.14-2.331 1.838-1.688c-1.19-0.046-2.355-0.327-3.496-0.841-1.137-0.51-2.149-1.248-3.036-2.214zM40.608 196.58v0c0.81 0.882 1.767 1.481 2.87 1.797 1.107 0.32 2.227 0.354 3.358 0.101 1.127-0.249 2.141-0.787 3.043-1.615v0c0.897-0.824 1.52-1.789 1.869-2.895 0.344-1.102 0.403-2.218 0.178-3.348-0.22-1.126-0.736-2.13-1.546-3.012v0c-0.815-0.887-1.773-1.489-2.876-1.804-1.103-0.315-2.218-0.349-3.345-0.1-1.132 0.253-2.146 0.792-3.043 1.615v0c-0.902 0.828-1.525 1.793-1.868 2.895-0.349 1.106-0.413 2.222-0.192 3.347 0.22 1.126 0.738 2.132 1.552 3.019z" fill="#eb5e28" data-fill-palette-color="accent"></path><path d="M74.506 224.269l-3.131-1.36 7.551-17.387 2.893 1.257-1.221 2.81c1.086-0.747 2.254-1.172 3.503-1.275 1.247-0.097 2.459 0.11 3.637 0.622v0c1.239 0.538 2.255 1.339 3.049 2.401 0.785 1.066 1.258 2.316 1.419 3.75 0.152 1.437-0.128 2.977-0.842 4.619v0l-4.342 9.998-3.131-1.36 4.155-9.567c0.594-1.367 0.711-2.756 0.352-4.168-0.368-1.408-1.294-2.434-2.777-3.078v0c-1.221-0.53-2.501-0.564-3.841-0.101-1.334 0.465-2.361 1.528-3.083 3.189v0z" fill="#eb5e28" data-fill-palette-color="accent"></path><path d="M125.977 244.429v0c-1.45 0.026-2.775-0.164-3.973-0.569-1.198-0.398-2.267-0.958-3.205-1.68v0l0.88-3.869c0.648 0.894 1.503 1.617 2.565 2.171 1.061 0.547 2.277 0.808 3.648 0.784v0c2.129-0.038 3.841-0.71 5.135-2.018 1.288-1.307 1.914-2.972 1.879-4.995v0l-0.041-2.305c-0.823 0.86-1.806 1.546-2.949 2.058-1.136 0.513-2.359 0.781-3.669 0.804v0c-1.723 0.03-3.308-0.377-4.754-1.224-1.453-0.846-2.618-2-3.496-3.462-0.878-1.462-1.333-3.088-1.364-4.878v0c-0.032-1.79 0.365-3.427 1.191-4.913 0.826-1.492 1.949-2.687 3.371-3.583 1.415-0.904 2.984-1.371 4.707-1.402v0c1.311-0.023 2.543 0.198 3.696 0.664 1.16 0.465 2.166 1.123 3.02 1.973v0l-0.044-2.495 3.163-0.056 0.336 18.953c0.036 2.063-0.411 3.841-1.343 5.335-0.932 1.487-2.17 2.637-3.713 3.45-1.55 0.806-3.23 1.225-5.04 1.257zM126.641 231.708v0c1.198-0.021 2.28-0.34 3.248-0.956 0.974-0.616 1.742-1.432 2.302-2.446 0.561-1.008 0.831-2.125 0.81-3.349v0c-0.022-1.218-0.331-2.324-0.928-3.318-0.597-0.988-1.392-1.772-2.387-2.354-0.989-0.582-2.082-0.862-3.28-0.841v0c-1.204 0.021-2.29 0.34-3.257 0.957-0.967 0.616-1.732 1.428-2.294 2.436-0.561 1.015-0.831 2.131-0.809 3.349v0c0.022 1.224 0.331 2.33 0.927 3.318 0.597 0.994 1.389 1.782 2.378 2.364 0.989 0.582 2.085 0.862 3.29 0.84z" fill="#eb5e28" data-fill-palette-color="accent"></path><path d="M175.14 222.521v0c-1.783 0.853-3.574 1.219-5.373 1.099-1.799-0.12-3.432-0.674-4.9-1.661-1.465-0.996-2.603-2.34-3.413-4.032v0c-0.773-1.615-1.085-3.269-0.936-4.964 0.148-1.694 0.696-3.247 1.643-4.659 0.95-1.406 2.22-2.49 3.811-3.251v0c1.579-0.755 3.205-1.073 4.879-0.952 1.668 0.124 3.196 0.636 4.586 1.535 1.389 0.899 2.47 2.156 3.243 3.771v0l0.599 1.252-11.175 5.347c-0.498 0.238-1.011 0.462-1.538 0.67-0.533 0.211-1.065 0.395-1.595 0.553v0c0.937 1.418 2.236 2.36 3.898 2.826 1.656 0.469 3.291 0.317 4.906-0.455v0c1.087-0.52 1.977-1.249 2.672-2.186 0.692-0.943 1.128-1.96 1.307-3.049v0l2.536 3.102c-0.498 1.057-1.187 2.021-2.068 2.893-0.872 0.875-1.9 1.595-3.082 2.161zM163.895 215.187v0c0.943-0.665 1.937-1.248 2.981-1.747v0l5.673-2.715c0.414-0.198 0.833-0.38 1.255-0.545 0.423-0.165 0.853-0.331 1.29-0.496v0c-0.899-1.2-2.089-1.977-3.572-2.33-1.476-0.356-2.889-0.211-4.24 0.436v0c-1.387 0.664-2.382 1.704-2.987 3.123-0.602 1.424-0.735 2.849-0.4 4.274z" fill="#eb5e28" data-fill-palette-color="accent"></path><path d="M212.531 192.631v0c-1.289 1.498-2.781 2.554-4.477 3.167-1.695 0.613-3.413 0.763-5.154 0.45-1.742-0.322-3.324-1.096-4.747-2.319v0c-1.357-1.168-2.308-2.557-2.853-4.168-0.545-1.611-0.669-3.253-0.37-4.927 0.304-1.67 1.031-3.173 2.182-4.509v0c1.142-1.327 2.503-2.271 4.084-2.833 1.577-0.557 3.182-0.703 4.816-0.439 1.634 0.264 3.129 0.98 4.485 2.148v0l1.052 0.905-8.08 9.389c-0.36 0.419-0.74 0.829-1.139 1.233-0.404 0.408-0.816 0.79-1.238 1.147v0c1.428 0.922 2.997 1.262 4.706 1.02 1.705-0.236 3.141-1.033 4.308-2.389v0c0.786-0.913 1.308-1.938 1.568-3.077 0.254-1.142 0.244-2.248-0.03-3.317v0l3.57 1.82c-0.03 1.168-0.274 2.328-0.73 3.481-0.447 1.152-1.098 2.225-1.953 3.218zM199.286 190.439v0c0.596-0.988 1.272-1.921 2.027-2.799v0l4.102-4.767c0.299-0.348 0.609-0.683 0.929-1.004 0.32-0.321 0.648-0.645 0.982-0.972v0c-1.306-0.737-2.708-0.97-4.207-0.697-1.495 0.268-2.73 0.969-3.707 2.104v0c-1.003 1.165-1.496 2.519-1.479 4.06 0.022 1.546 0.473 2.904 1.353 4.075z" fill="#eb5e28" data-fill-palette-color="accent"></path><path d="M233.551 153.757l-1.103 3.23-15.247-5.205-1.387 4.062-2.692-0.92 1.419-4.156-5.979-2.042 1.041-3.051 5.98 2.042 1.522-4.459 2.693 0.919-1.494 4.374z" fill="#eb5e28" data-fill-palette-color="accent"></path><path d="M4.425 117.495c0-6.2 5.026-11.226 11.226-11.226 6.2 0 11.226 5.026 11.226 11.226 0 6.2-5.026 11.226-11.226 11.226-6.2 0-11.226-5.026-11.226-11.226z" fill="#eb5e28" data-fill-palette-color="accent"></path><path d="M218.456 117.495c0-6.2 5.026-11.226 11.226-11.226 6.2 0 11.226 5.026 11.225 11.226 0 6.2-5.026 11.226-11.225 11.226-6.2 0-11.226-5.026-11.226-11.226z" fill="#eb5e28" data-fill-palette-color="accent"></path></g><g id="text-1"></g></svg></g></svg></g><g></g></svg></g><defs></defs></svg><rect width="238.8280428750842" height="247.2" fill="none" stroke="none" visibility="hidden"></rect></g></svg></g></svg>